<svg width="372" height="372" viewBox="0 0 372 372" fill="none" xmlns="http://www.w3.org/2000/svg">
<path fill-rule="evenodd" clip-rule="evenodd" d="M96.5605 32H143.201H170.921H203.481C229.587 32 251.441 36.1067 269.041 44.32C286.934 52.24 300.427 63.68 309.521 78.64C318.614 93.6 323.161 111.64 323.161 132.76C323.161 153.293 318.614 171.187 309.521 186.44C300.427 201.4 286.934 212.987 269.041 221.2C258.478 225.953 246.383 229.28 232.755 231.181C208.326 233.507 188.258 231.806 170.921 227.862C160.869 225.575 151.735 222.534 143.201 219.087C135.889 216.133 129.018 212.881 122.386 209.55C113.559 204.751 104.943 199.576 96.5605 194.039V32ZM170.921 171.92V93.16H203.481C218.441 93.16 230.174 96.5333 238.681 103.28C247.187 110.027 251.441 119.853 251.441 132.76C251.441 145.373 247.187 155.053 238.681 161.8C230.174 168.547 218.441 171.92 203.481 171.92H170.921ZM170.921 340V284.516C161.777 281.335 152.544 277.751 143.286 273.762C126.618 266.581 110.96 258.556 96.5605 249.966V300L170.921 340Z" fill="black"/>
<path fill-rule="evenodd" clip-rule="evenodd" d="M345.732 242.986C349.255 234.814 349.651 225.667 347.247 215.978C356.335 233.237 358.68 249.69 352.705 263.555C334.384 306.089 244.931 308.351 152.857 268.634C60.7835 228.916 0.987864 162.251 19.2968 119.717C25.2716 105.84 38.844 96.2475 57.6218 91C48.9542 95.9226 42.5587 102.542 39.0484 110.654C22.206 149.77 77.205 211.116 161.897 247.656C246.59 284.196 328.902 282.102 345.732 242.986ZM333.225 225.996C337.432 216.153 337.131 204.904 332.984 193C342.047 209.134 344.632 224.578 339.114 237.476C323.067 275.017 244.635 277.03 163.932 241.949C134.061 228.966 108.074 212.735 88 195.521C107.458 209.442 128.336 221.227 150.277 230.675C234.563 267.308 316.468 265.211 333.225 225.996Z" fill="#9E9DFE"/>
</svg>
