<svg width="400" height="400" viewBox="0 0 400 400" fill="none" xmlns="http://www.w3.org/2000/svg">
<rect width="400" height="400" fill="black"/>
<g clip-path="url(#clip0_1815_62582)">
<path d="M257.542 127.033C277.441 127.033 294.254 139.679 294.254 154.655C294.254 169.631 277.441 182.273 257.542 182.273H228.56L212.422 213.3H257.537C272.315 213.3 286.002 209.179 297.121 202.196C314.152 191.539 325.251 174.193 325.251 154.645C325.281 122.313 294.893 96 257.542 96H183.262L167.119 127.033H257.542Z" fill="#9E9DFE"/>
<path d="M277.491 228.829C278.788 232.507 279.053 236.47 278.258 240.288C276.694 248.408 271.036 256.65 262.734 262.836C253.985 269.362 242.987 273.112 232.569 273.112H173.929L205.027 213.32L221.171 182.273L235.537 154.645H200.562L186.19 182.273L170.051 213.3L138.953 273.112L122.81 304.14H232.569C249.777 304.14 267.078 298.314 281.287 287.728C295.943 276.802 305.697 262.034 308.742 246.14C310.553 237.088 309.935 227.719 306.951 218.984L277.491 228.829Z" fill="white"/>
<path d="M157.218 213.31H164.454L180.598 182.277H173.356H138.38L122.242 213.31L91.138 273.102L75 304.135H109.976L126.119 273.102L157.218 213.31Z" fill="#9E9DFE"/>
</g>
<defs>
<clipPath id="clip0_1815_62582">
<rect width="250" height="360" fill="white" transform="translate(75 20)"/>
</clipPath>
</defs>
</svg>
